<svg xmlns="http://www.w3.org/2000/svg" viewBox="0 0 512 512" role="img" aria-labelledby="title desc">
  <title id="title">Codex Remote Control icon option 1</title>
  <desc id="desc">A compact command relay mark with a phone, terminal prompt, and private network link.</desc>
  <defs>
    <linearGradient id="bg" x1="76" y1="56" x2="436" y2="456" gradientUnits="userSpaceOnUse">
      <stop offset="0" stop-color="#0f766e"/>
      <stop offset="0.58" stop-color="#155e75"/>
      <stop offset="1" stop-color="#1e293b"/>
    </linearGradient>
    <linearGradient id="screen" x1="144" y1="128" x2="368" y2="376" gradientUnits="userSpaceOnUse">
      <stop offset="0" stop-color="#f8fafc"/>
      <stop offset="1" stop-color="#cbd5e1"/>
    </linearGradient>
    <filter id="shadow" x="-20%" y="-20%" width="140%" height="150%">
      <feDropShadow dx="0" dy="18" stdDeviation="18" flood-color="#020617" flood-opacity="0.28"/>
    </filter>
  </defs>

  <rect width="512" height="512" rx="112" fill="url(#bg)"/>
  <path d="M92 350c61-17 89-65 103-126 8-35 34-65 70-73 51-11 97 21 127 61 21 28 35 62 48 96 8 22 16 43 30 60v42H92z" fill="#22c55e" opacity="0.13"/>
  <circle cx="394" cy="126" r="52" fill="#f59e0b" opacity="0.2"/>

  <g filter="url(#shadow)">
    <rect x="150" y="86" width="212" height="340" rx="44" fill="#0f172a"/>
    <rect x="170" y="126" width="172" height="246" rx="24" fill="url(#screen)"/>
    <rect x="222" y="106" width="68" height="8" rx="4" fill="#475569"/>
    <circle cx="256" cy="398" r="13" fill="#475569"/>
  </g>

  <g fill="none" stroke-linecap="round" stroke-linejoin="round">
    <path d="M214 212l35 32-35 32" stroke="#0f172a" stroke-width="24"/>
    <path d="M268 278h54" stroke="#0f172a" stroke-width="24"/>
    <path d="M108 255h54" stroke="#67e8f9" stroke-width="18"/>
    <path d="M350 255h54" stroke="#67e8f9" stroke-width="18"/>
    <path d="M125 222c23-42 65-70 113-74" stroke="#a7f3d0" stroke-width="14" opacity="0.82"/>
    <path d="M274 364c48-4 90-32 113-74" stroke="#a7f3d0" stroke-width="14" opacity="0.82"/>
  </g>

  <circle cx="102" cy="255" r="18" fill="#ccfbf1"/>
  <circle cx="410" cy="255" r="18" fill="#ccfbf1"/>
  <circle cx="256" cy="244" r="10" fill="#14b8a6"/>
</svg>
