<svg xmlns="http://www.w3.org/2000/svg" viewBox="0 0 512 512" role="img" aria-labelledby="title desc">
  <title id="title">Codex Remote Control icon option 3</title>
  <desc id="desc">A session control icon with connected conversation cards around a central Codex command node.</desc>
  <defs>
    <linearGradient id="bg" x1="68" y1="72" x2="438" y2="444" gradientUnits="userSpaceOnUse">
      <stop offset="0" stop-color="#f8fafc"/>
      <stop offset="0.52" stop-color="#dbeafe"/>
      <stop offset="1" stop-color="#99f6e4"/>
    </linearGradient>
    <linearGradient id="core" x1="180" y1="160" x2="330" y2="346" gradientUnits="userSpaceOnUse">
      <stop offset="0" stop-color="#0f172a"/>
      <stop offset="1" stop-color="#0f766e"/>
    </linearGradient>
    <filter id="shadow" x="-20%" y="-20%" width="140%" height="150%">
      <feDropShadow dx="0" dy="14" stdDeviation="15" flood-color="#0f172a" flood-opacity="0.2"/>
    </filter>
  </defs>

  <rect width="512" height="512" rx="112" fill="url(#bg)"/>
  <path d="M118 144c54-55 139-73 211-44 76 31 121 106 111 183-10 82-76 144-160 154-72 9-144-25-183-86" fill="none" stroke="#0f766e" stroke-width="18" stroke-linecap="round" opacity="0.22"/>
  <path d="M126 350c58 50 145 61 215 20 72-42 104-129 76-207" fill="none" stroke="#2563eb" stroke-width="14" stroke-linecap="round" opacity="0.18"/>

  <g filter="url(#shadow)">
    <rect x="178" y="158" width="156" height="196" rx="38" fill="url(#core)"/>
    <rect x="200" y="190" width="112" height="118" rx="18" fill="#f8fafc"/>
    <rect x="218" y="326" width="76" height="9" rx="5" fill="#99f6e4" opacity="0.9"/>
  </g>

  <g fill="none" stroke-linecap="round" stroke-linejoin="round">
    <path d="M226 234l27 22-27 22" stroke="#0f172a" stroke-width="18"/>
    <path d="M266 279h34" stroke="#0f172a" stroke-width="18"/>
    <path d="M154 170l50 50" stroke="#0f766e" stroke-width="12" opacity="0.72"/>
    <path d="M357 171l-49 49" stroke="#0f766e" stroke-width="12" opacity="0.72"/>
    <path d="M154 342l50-50" stroke="#2563eb" stroke-width="12" opacity="0.62"/>
    <path d="M358 342l-50-50" stroke="#2563eb" stroke-width="12" opacity="0.62"/>
  </g>

  <g filter="url(#shadow)">
    <rect x="74" y="110" width="108" height="86" rx="24" fill="#ffffff"/>
    <rect x="330" y="110" width="108" height="86" rx="24" fill="#ffffff"/>
    <rect x="74" y="316" width="108" height="86" rx="24" fill="#ffffff"/>
    <rect x="330" y="316" width="108" height="86" rx="24" fill="#ffffff"/>
  </g>

  <path d="M101 144h54M101 164h34" stroke="#0f766e" stroke-width="12" stroke-linecap="round"/>
  <path d="M357 144h54M357 164h34" stroke="#2563eb" stroke-width="12" stroke-linecap="round"/>
  <path d="M101 350h54M101 370h34" stroke="#2563eb" stroke-width="12" stroke-linecap="round"/>
  <path d="M357 350h54M357 370h34" stroke="#0f766e" stroke-width="12" stroke-linecap="round"/>

  <circle cx="256" cy="256" r="11" fill="#14b8a6"/>
  <circle cx="128" cy="196" r="10" fill="#f59e0b"/>
  <circle cx="384" cy="196" r="10" fill="#f59e0b"/>
  <circle cx="128" cy="316" r="10" fill="#14b8a6"/>
  <circle cx="384" cy="316" r="10" fill="#14b8a6"/>
</svg>
