<svg xmlns="http://www.w3.org/2000/svg" width="160" height="160" viewBox="0 0 108 108" role="img" aria-label="CodexRemote icon">
  <rect width="108" height="108" fill="#F3F1E8"/>
  <path fill="#1F2937" d="M42,27H66A6,6 0,0 1,72 33V75A6,6 0,0 1,66 81H42A6,6 0,0 1,36 75V33A6,6 0,0 1,42 27Z"/>
  <path fill="#FFFFFF" d="M43.5,36H64.5A3.5,3.5 0,0 1,68 39.5V69A3.5,3.5 0,0 1,64.5 72.5H43.5A3.5,3.5 0,0 1,40 69V39.5A3.5,3.5 0,0 1,43.5 36Z"/>
  <path fill="#94A3B8" d="M49,30H59A0.9,0.9 0,0 1,59.9 30.9A0.9,0.9 0,0 1,59 31.8H49A0.9,0.9 0,0 1,48.1 30.9A0.9,0.9 0,0 1,49 30Z"/>
  <path fill="#94A3B8" d="M52,76.5A2.2,2.2 0,1 0,56.4 76.5A2.2,2.2 0,1 0,52 76.5Z"/>
  <path fill="#2DD4BF" d="M61.8,39.2A2,2 0,1 0,65.8 39.2A2,2 0,1 0,61.8 39.2Z"/>
  <path fill="#0E7490" d="M44,51L46.8,48.2L54,54L46.8,59.8L44,57L48.7,54Z"/>
  <path fill="#0E7490" d="M53,59H61A2.2,2.2 0,0 1,63.2 61.2A2.2,2.2 0,0 1,61 63.4H53A2.2,2.2 0,0 1,50.8 61.2A2.2,2.2 0,0 1,53 59Z"/>
</svg>
